PathFileType	4	(X/Y/Z)	E:\3-PhD\Data\MocapData\ElaboratedData\012\pre\dynamicElaborations\RunL1\RunL1.trc
DataRate	CameraRate	NumFrames	NumMarkers	Units	OrigDataRate	OrigDataStartFrame	OrigNumFrames
200	200	4	56	mm	200	638	123
Frame#	Time	FHD			LBHD			RBHD			C7			T10			CLAV			LSHO			LUUPA			LMUPA			LDUPA			LLEP			LMEP			LRAD			LUL			LRFIN			RSHO			RUPA1			RMUPA			RDUPA			RLEP			RMEP			RRAD			RUL			RUFIN			LASI			RASI			USACR			LSACR			RSACR			LTHI1			LTHI2			LTHI3			LTHI4			LLFC			LTIB1			LTIB2			LTIB3			LTIB4			LHEE			LMT1			LMT5			LMT2			RTHI			RTHI2			RTHI3			RTHI4			RLFC			RTIB1			RTIB2			RTIB3			RTIB4			RLMAL			RHEE			RMT1			RMT2			RMT5		
		X1	Y1	Z1	X2	Y2	Z2	X3	Y3	Z3	X4	Y4	Z4	X5	Y5	Z5	X6	Y6	Z6	X7	Y7	Z7	X8	Y8	Z8	X9	Y9	Z9	X10	Y10	Z10	X11	Y11	Z11	X12	Y12	Z12	X13	Y13	Z13	X14	Y14	Z14	X15	Y15	Z15	X16	Y16	Z16	X17	Y17	Z17	X18	Y18	Z18	X19	Y19	Z19	X20	Y20	Z20	X21	Y21	Z21	X22	Y22	Z22	X23	Y23	Z23	X24	Y24	Z24	X25	Y25	Z25	X26	Y26	Z26	X27	Y27	Z27	X28	Y28	Z28	X29	Y29	Z29	X30	Y30	Z30	X31	Y31	Z31	X32	Y32	Z32	X33	Y33	Z33	X34	Y34	Z34	X35	Y35	Z35	X36	Y36	Z36	X37	Y37	Z37	X38	Y38	Z38	X39	Y39	Z39	X40	Y40	Z40	X41	Y41	Z41	X42	Y42	Z42	X43	Y43	Z43	X44	Y44	Z44	X45	Y45	Z45	X46	Y46	Z46	X47	Y47	Z47	X48	Y48	Z48	X49	Y49	Z49	X50	Y50	Z50	X51	Y51	Z51	X52	Y52	Z52	X53	Y53	Z53	X54	Y54	Z54	X55	Y55	Z55	X56	Y56	Z56	
638	3.185000	-2506.454841	1697.515313	476.799975	-2656.939419	1747.475501	379.752347	-2646.369088	1724.430884	529.965163	-2769.151616	1580.437953	427.541623	-2948.109719	1280.634752	373.222275	-2676.271736	1449.201208	432.271126	-2656.290440	1570.839310	289.981884	-2712.024633	1404.800121	137.252732	-2686.117690	1364.932391	146.419809	-2731.021093	1340.821607	114.775079	-2735.881160	1250.088704	104.802380	-2816.139257	1250.596650	152.029933	-2633.241843	1179.869447	353.309806	-2611.941879	1119.624042	309.609620	-2569.860825	1158.505951	408.419475	-2733.286258	1490.230114	606.823900	-2970.164068	1425.409528	628.820298	-2971.225507	1374.254715	631.518232	-3026.973138	1382.682624	617.496639	-3079.592794	1339.333555	615.951650	-3070.583692	1316.240686	534.609566	-2968.999735	1081.715858	670.949106	-3042.913253	1064.739541	686.928315	-2960.510854	994.668958	703.972644	-2859.598783	1018.324054	248.131635	-2860.474316	1017.622406	476.243437	-3007.923147	1148.631112	374.385190	-3029.233877	1119.497353	338.830696	-3024.757998	1117.427704	403.021628	-3062.111957	799.732588	173.043707	-3057.473310	714.466393	180.066655	-3015.361005	699.144114	191.501692	-3105.279713	677.635561	184.695349	-3190.452051	547.805531	205.294425	-3350.331971	457.983324	285.229229	-3407.171135	490.444885	231.267668	-3399.482141	452.028699	259.274063	-3471.549041	440.092832	300.494385	-3636.475712	520.259363	361.318910	-3669.478912	307.729277	341.274422	-3697.590378	354.572713	260.536179	-3673.519924	310.368673	292.897297	-2839.061274	737.987272	518.365438	-2777.331282	713.127005	512.006429	-2745.601232	732.078174	505.997577	-2758.346551	635.888097	483.901572	-2699.612849	539.532291	459.430393	-2632.523298	425.182011	412.510946	-2687.317314	334.231695	443.077850	-2642.819356	338.820128	427.397988	-2625.670952	296.976584	393.034662	-2648.927920	116.381964	379.828757	-2674.396421	56.048639	328.232636	-2477.828028	164.568008	327.286605	-2480.461562	160.697805	369.992353	-2507.635871	108.650016	407.877658	
639	3.190000	-2482.387041	1696.226684	476.399979	-2633.484308	1745.711606	379.980968	-2622.303089	1722.494770	530.041104	-2744.496024	1578.710969	428.135703	-2923.792888	1278.950048	373.525869	-2652.328194	1447.384214	431.797441	-2632.541407	1568.289467	288.638956	-2693.697611	1403.958090	135.437124	-2667.975390	1363.661817	143.569654	-2713.951441	1340.280920	113.083218	-2719.857670	1249.170972	102.766921	-2798.955055	1250.981482	151.494049	-2614.504913	1169.953398	347.687995	-2595.627582	1110.317105	301.922124	-2550.568230	1145.195950	400.814679	-2708.862595	1487.402146	606.933178	-2945.124692	1417.557691	629.457102	-2944.950497	1366.357221	632.109418	-3001.981401	1373.687364	616.735193	-3052.977044	1330.015723	615.802412	-3043.595075	1307.934389	534.173768	-2939.286171	1073.290680	667.771217	-3012.992640	1055.373321	683.643809	-2929.806057	986.196706	700.085082	-2834.048413	1017.103379	247.298543	-2836.129184	1016.044974	475.546723	-2983.562768	1146.453748	372.974142	-3004.535890	1117.384903	337.698863	-3000.554752	1115.433699	401.593192	-3033.464366	795.452378	171.024928	-3027.082739	710.211054	177.343832	-2984.708796	695.676062	188.695380	-3074.107599	672.411845	181.758253	-3156.254007	541.543791	201.757186	-3318.810868	457.392166	281.692026	-3373.495683	492.309745	229.716623	-3367.243856	453.845019	257.509848	-3439.359693	444.899051	299.362899	-3600.946722	531.664703	361.373741	-3640.865071	320.106944	341.852940	-3668.079126	367.817393	261.157878	-3645.371132	322.909371	293.607424	-2816.348563	735.926232	515.966952	-2755.731244	710.472907	508.666435	-2722.848647	729.198387	504.237858	-2737.014710	632.967383	481.448972	-2679.445667	534.930816	457.980102	-2614.435848	419.360625	410.890758	-2671.034172	329.253088	440.923573	-2626.401531	333.181646	425.548345	-2609.808337	291.061160	391.264527	-2635.824353	111.304819	378.363630	-2663.423905	53.003320	326.394427	-2464.570725	155.730170	325.464853	-2467.357372	151.945099	368.282984	-2496.219860	100.568877	405.662207	
640	3.195000	-2458.406016	1694.790843	475.888318	-2610.148691	1743.763003	380.129124	-2598.227676	1720.377960	530.111521	-2720.052652	1576.729915	428.675039	-2899.462200	1276.919940	373.757743	-2628.413185	1445.304295	431.262653	-2609.008183	1565.562896	287.340105	-2675.607188	1403.031686	133.748501	-2650.148791	1362.250674	140.982857	-2697.132813	1339.686881	111.533906	-2704.099079	1248.277334	100.814912	-2781.939209	1251.223476	151.083297	-2596.044474	1159.731480	341.572719	-2579.695505	1100.839941	293.758958	-2531.578788	1131.614454	392.436382	-2684.397658	1484.395217	606.988671	-2919.850404	1409.434145	630.159542	-2918.336163	1358.245331	632.959454	-2976.798213	1364.426400	615.996561	-3026.089998	1320.347176	615.786937	-3016.452819	1299.336254	533.865975	-2909.136416	1064.653505	664.461377	-2982.597984	1045.809749	680.385069	-2898.600775	977.533172	695.942290	-2808.585460	1015.602880	246.431524	-2811.676585	1014.437084	474.818828	-2959.149766	1144.082620	371.511896	-2979.829700	1115.104249	336.607188	-2976.375615	1113.331952	400.097671	-3004.586307	790.859731	169.100327	-2996.380754	705.674628	174.649720	-2953.747056	691.939463	185.967133	-3042.572484	666.896426	178.856965	-3121.608276	535.016952	198.150231	-3286.722669	456.388939	277.793622	-3338.951625	493.629354	227.924431	-3334.106264	455.193325	255.541628	-3406.152433	449.131000	297.969114	-3564.414073	542.117026	360.916108	-3610.573774	331.659477	342.315124	-3637.009995	379.924738	261.486555	-3615.573809	334.437449	294.097308	-2793.542240	733.801758	513.549169	-2734.157353	707.718295	505.150411	-2700.186014	726.150781	502.330279	-2715.675047	629.905604	479.127732	-2659.557684	530.081913	456.605626	-2596.853624	413.327064	409.338019	-2655.552113	324.242281	438.749185	-2610.800960	327.394450	423.682376	-2594.901013	284.971015	389.470327	-2624.444142	106.263209	376.828061	-2654.729553	50.593282	324.638637	-2452.989754	145.724419	323.098481	-2455.838678	142.126173	366.045842	-2486.394883	91.891186	403.353289	
641	3.200000	-2434.508545	1693.243256	475.269898	-2586.927415	1741.665142	380.205714	-2574.147651	1718.127355	530.184791	-2695.832041	1574.515541	429.155238	-2875.113394	1274.572012	373.888322	-2604.509333	1442.981908	430.674484	-2585.686141	1562.719702	286.074098	-2657.708851	1402.021248	132.223282	-2632.606061	1360.710759	138.715004	-2680.515055	1339.050236	110.153813	-2688.561936	1247.442680	98.963763	-2765.063802	1251.336101	150.811054	-2577.891510	1149.264551	334.954532	-2564.158107	1091.278367	285.124849	-2512.939946	1117.861725	383.281653	-2659.890771	1481.215297	606.998980	-2894.327136	1401.094620	630.920305	-2891.387075	1349.976262	634.032894	-2951.348334	1354.967851	615.360470	-2998.922533	1310.371622	615.907956	-2989.162710	1290.477151	533.691009	-2878.521185	1055.877894	661.004457	-2951.685690	1036.103015	677.180734	-2866.837927	968.769502	691.534253	-2783.227534	1013.825235	245.530067	-2787.170721	1012.805500	474.070199	-2934.716229	1141.551390	369.993258	-2955.141421	1112.671640	335.512225	-2952.246174	1111.154959	398.538531	-2975.489163	785.985340	167.260048	-2965.376585	700.901445	171.989187	-2922.482063	687.978613	183.319066	-3010.677005	661.123902	176.001956	-3086.514447	528.256311	194.511171	-3253.972892	455.004364	273.706998	-3303.601668	494.370853	225.905625	-3300.082814	456.028527	253.426957	-3371.973944	452.754089	296.377575	-3527.018928	551.577396	359.958002	-3578.676174	342.307860	342.630975	-3604.427630	390.817688	261.472113	-3584.173117	344.873440	294.321274	-2770.755585	731.568703	511.277030	-2712.627510	704.827172	501.721456	-2677.709460	722.881208	500.380249	-2694.345612	626.697341	477.110893	-2639.923321	525.084874	455.302375	-2579.671133	407.260320	407.809941	-2640.647174	319.372177	436.607379	-2595.832479	321.644961	421.787761	-2580.777439	278.912338	387.626916	-2614.638552	101.457767	375.181080	-2648.021517	48.947190	322.991997	-2442.925007	134.821405	320.239453	-2445.751997	131.538272	363.327302	-2477.954487	82.990294	401.068717	
